<svg width="500" height="500" viewBox="0 0 500 500" fill="none" xmlns="http://www.w3.org/2000/svg">
<path d="M25 224.707C25 215.394 32.555 207.845 41.875 207.845H92.501C101.821 207.845 109.376 215.394 109.376 224.707V275.292C109.376 284.605 101.821 292.154 92.501 292.154H41.875C32.555 292.154 25 284.605 25 275.292V224.707Z" fill="#2D2D2D"/>
<path d="M78.0189 263.3C72.5869 265.698 66.7029 264.715 64.4399 263.924C64.4399 264.465 64.4149 266.147 64.3169 268.545C64.2179 270.943 63.4529 272.458 63.0829 272.916C63.1239 274.415 63.1569 277.686 62.9599 278.785C62.7619 279.884 62.0549 280.825 61.7259 281.158H58.3929C58.6889 279.66 59.8329 278.702 60.3679 278.411C60.6639 275.314 60.0799 272.625 59.7509 271.667C59.4219 272.833 58.6149 275.538 58.0229 277.037C57.4299 278.536 56.5419 279.909 56.1709 280.409H53.7019C53.5779 278.91 54.4009 278.411 54.9359 278.411C55.1829 277.953 55.7749 276.513 56.1699 274.415C56.5649 272.317 56.0049 268.379 55.6759 266.672V261.302C51.7259 259.179 50.2449 257.056 49.2569 254.683C48.4669 252.785 48.6809 249.896 48.8869 248.689C48.6399 248.231 47.9199 247.067 47.6529 245.442C47.2829 243.194 47.4879 241.571 47.6529 240.696C47.4059 240.446 46.9119 239.173 46.9119 236.075C46.9119 232.978 47.8169 231.371 48.2699 230.955V229.581C46.5419 229.456 44.8139 228.707 43.8259 227.708C42.8379 226.709 43.5789 225.21 44.1959 224.711C44.8129 224.211 45.4299 224.586 46.2949 224.336C47.1589 224.086 47.8999 223.836 48.2699 223.087C48.5659 222.488 47.9819 220.007 47.6529 218.841C49.1339 219.041 50.0809 220.34 50.3689 220.964V218.841C52.2209 219.715 55.5539 221.838 56.6649 226.459C57.5539 230.155 58.1869 237.906 58.3929 241.32C63.1249 241.362 69.1329 240.642 74.5639 241.819C79.5019 242.89 81.7239 245.066 84.3159 245.066C86.9079 245.066 88.3899 243.567 90.2409 244.816C92.0929 246.065 93.0799 249.561 92.8329 252.184C92.6359 254.282 91.0219 254.973 90.2409 255.056C89.2529 258.353 90.2409 261.508 90.8579 262.674V267.419C91.1459 267.835 91.7219 269.117 91.7219 270.916C91.7219 272.714 91.1459 273.913 90.8579 274.288C91.3519 277.085 90.6519 279.949 90.2409 281.032H86.9079C87.3029 280.033 87.9779 279.783 88.2659 279.783C88.8589 276.686 88.4309 273.83 88.1429 272.79C86.2669 271.691 85.0569 269.751 84.6869 268.919C84.7279 269.627 84.6129 271.591 83.8229 273.789C83.0329 275.987 81.8479 277.286 81.3539 277.66V280.283H78.0209C78.0209 278.684 78.9259 278.368 79.3789 278.41C79.9549 277.369 81.3539 275.788 81.3539 272.666C81.3539 270.032 79.5019 268.795 78.1439 266.422C77.4969 265.294 77.8129 263.883 78.0189 263.3Z" fill="url(#paint0_linear_120_3)"/>
<path d="M168.024 270.07V228.626H176.835V270.07H168.024Z" fill="white"/>
<path fill-rule="evenodd" clip-rule="evenodd" d="M384.822 270.517C381.959 270.517 379.38 269.884 377.085 268.618C374.788 267.315 372.961 265.509 371.606 263.2C370.289 260.891 369.63 258.173 369.63 255.045C369.63 251.88 370.289 249.143 371.606 246.835C372.961 244.526 374.788 242.739 377.085 241.473C379.38 240.207 381.959 239.574 384.822 239.574C387.382 239.574 389.623 240.133 391.544 241.25C392.425 241.763 393.215 242.398 393.914 243.154V228.627H402.725V270.071H394.311V266.601C393.551 267.508 392.667 268.255 391.657 268.842C389.773 269.958 387.495 270.517 384.822 270.517ZM386.348 263.367C387.778 263.367 389.075 263.032 390.244 262.362C391.412 261.692 392.333 260.742 393.01 259.513C393.726 258.247 394.084 256.758 394.084 255.045C394.084 253.295 393.726 251.805 393.01 250.577C392.332 249.348 391.411 248.399 390.244 247.728C389.075 247.058 387.778 246.723 386.348 246.723C384.879 246.723 383.559 247.058 382.394 247.728C381.226 248.398 380.284 249.348 379.57 250.577C378.892 251.806 378.554 253.295 378.554 255.045C378.554 256.758 378.892 258.247 379.57 259.513C380.285 260.742 381.227 261.691 382.394 262.362C383.56 263.032 384.879 263.367 386.348 263.367Z" fill="white"/>
<path fill-rule="evenodd" clip-rule="evenodd" d="M416.811 268.506C419.448 269.846 422.498 270.517 425.962 270.517C428.71 270.517 431.139 270.107 433.248 269.288C435.356 268.432 437.106 267.222 438.499 265.658L433.813 260.631C432.796 261.599 431.667 262.325 430.424 262.809C429.218 263.293 427.807 263.535 426.187 263.535C424.38 263.535 422.798 263.218 421.442 262.585C420.125 261.915 419.089 260.965 418.336 259.736C417.946 259.046 417.663 258.302 417.484 257.502H440.476L440.493 257.336C440.524 257.014 440.556 256.678 440.589 256.329C440.626 255.882 440.645 255.491 440.645 255.156C440.645 251.916 439.948 249.142 438.556 246.834C437.162 244.488 435.261 242.701 432.85 241.472C430.478 240.206 427.805 239.573 424.83 239.573C421.741 239.573 418.975 240.243 416.528 241.584C414.079 242.887 412.14 244.712 410.71 247.058C409.316 249.367 408.621 252.029 408.621 255.045C408.621 258.024 409.336 260.686 410.768 263.032C412.199 265.341 414.213 267.165 416.811 268.506ZM417.384 252.42C417.53 251.489 417.81 250.651 418.224 249.907C418.864 248.715 419.748 247.803 420.878 247.17C422.046 246.5 423.382 246.165 424.889 246.165C426.394 246.165 427.713 246.5 428.843 247.17C429.973 247.803 430.857 248.697 431.497 249.851C431.921 250.617 432.205 251.474 432.349 252.42H417.384Z" fill="white"/>
<path d="M453.535 254.914L441.845 270.071H451.447L458.349 260.866L465.003 270.071H475L463.245 254.717L474.548 240.022H465.173L458.571 248.798L452.124 240.022H442.241L453.535 254.914Z" fill="white"/>
<path d="M357.41 241.025C355.528 240.057 353.382 239.573 350.971 239.573C348.373 239.573 346.059 240.113 344.025 241.193C342.826 241.83 341.79 242.629 340.918 243.59V240.02H332.503V270.07H341.314V255.213C341.314 253.351 341.614 251.824 342.217 250.633C342.857 249.441 343.722 248.566 344.816 248.008C345.946 247.412 347.207 247.114 348.599 247.114C350.557 247.114 352.064 247.691 353.117 248.845C354.211 249.999 354.756 251.787 354.756 254.207V270.07H363.567V252.867C363.567 249.814 363.021 247.319 361.928 245.382C360.837 243.408 359.33 241.956 357.41 241.025Z" fill="white"/>
<path d="M314.591 270.07V230.972H323.742V270.07H314.591Z" fill="white"/>
<path fill-rule="evenodd" clip-rule="evenodd" d="M297.749 266.336V270.069H305.995V252.922C305.995 248.342 304.715 244.972 302.155 242.812C299.595 240.652 295.999 239.572 291.368 239.572C288.958 239.572 286.586 239.888 284.251 240.522C281.916 241.155 279.921 242.049 278.264 243.203L281.427 249.291C282.519 248.434 283.836 247.764 285.381 247.28C286.963 246.759 288.562 246.498 290.181 246.498C292.553 246.498 294.305 247.019 295.434 248.062C296.6 249.104 297.183 250.557 297.183 252.419H290.18C287.091 252.419 284.589 252.81 282.669 253.592C280.748 254.337 279.335 255.379 278.431 256.72C277.566 258.061 277.133 259.624 277.133 261.412C277.133 263.125 277.585 264.67 278.489 266.048C279.392 267.426 280.691 268.524 282.385 269.343C284.079 270.125 286.113 270.516 288.485 270.516C291.158 270.516 293.342 270.014 295.037 269.008C296.182 268.33 297.086 267.439 297.749 266.336ZM297.184 257.503H291.142C289.07 257.503 287.64 257.838 286.85 258.508C286.095 259.178 285.72 260.016 285.72 261.021C285.72 262.138 286.152 263.032 287.017 263.702C287.921 264.335 289.145 264.652 290.69 264.652C292.158 264.652 293.475 264.317 294.644 263.647C295.81 262.939 296.658 261.915 297.184 260.575V257.503Z" fill="white"/>
<path d="M258.788 239.573C261.196 239.573 263.324 240.057 265.169 241.025C267.051 241.956 268.519 243.408 269.574 245.382C270.666 247.318 271.214 249.813 271.214 252.867V270.07H262.403V254.207C262.403 251.786 261.894 249.999 260.877 248.845C259.86 247.691 258.43 247.114 256.585 247.114C255.304 247.114 254.157 247.412 253.14 248.008C252.124 248.567 251.333 249.423 250.768 250.577C250.204 251.731 249.921 253.202 249.921 254.99V270.071H241.11V254.208C241.11 251.787 240.602 250 239.586 248.846C238.605 247.692 237.195 247.115 235.348 247.115C234.068 247.115 232.921 247.413 231.903 248.009C230.887 248.568 230.096 249.424 229.531 250.578C228.966 251.732 228.684 253.203 228.684 254.991V270.072H219.874V240.022H228.289V243.489C229.107 242.558 230.067 241.794 231.17 241.195C233.128 240.115 235.349 239.575 237.834 239.575C240.62 239.575 243.05 240.282 245.121 241.697C246.222 242.417 247.13 243.34 247.84 244.467C248.715 243.368 249.785 242.426 251.05 241.641C253.308 240.262 255.886 239.573 258.788 239.573Z" fill="white"/>
<path fill-rule="evenodd" clip-rule="evenodd" d="M203.651 266.336V270.07H211.897V252.923C211.897 248.343 210.617 244.973 208.057 242.813C205.496 240.653 201.9 239.573 197.269 239.573C194.86 239.573 192.488 239.889 190.152 240.523C187.818 241.156 185.823 242.05 184.165 243.204L187.329 249.292C188.421 248.435 189.738 247.765 191.282 247.281C192.864 246.76 194.464 246.499 196.083 246.499C198.455 246.499 200.206 247.02 201.335 248.063C202.503 249.105 203.085 250.558 203.085 252.42H196.082C192.994 252.42 190.49 252.811 188.57 253.593C186.65 254.338 185.238 255.38 184.333 256.721C183.467 258.062 183.035 259.625 183.035 261.413C183.035 263.126 183.486 264.671 184.39 266.049C185.293 267.427 186.593 268.525 188.287 269.344C189.981 270.126 192.015 270.517 194.387 270.517C197.061 270.517 199.244 270.015 200.939 269.009C202.084 268.33 202.988 267.439 203.651 266.336ZM203.086 257.503H197.043C194.972 257.503 193.541 257.838 192.751 258.508C191.997 259.178 191.621 260.016 191.621 261.021C191.621 262.138 192.054 263.032 192.919 263.702C193.823 264.335 195.047 264.652 196.591 264.652C198.06 264.652 199.377 264.317 200.545 263.647C201.712 262.939 202.559 261.915 203.086 260.575V257.503Z" fill="white"/>
<path d="M134.503 230.971V270.069H163.478V262.696H143.653V230.971H134.503Z" fill="white"/>
<defs>
<linearGradient id="paint0_linear_120_3" x1="38.5144" y1="234.563" x2="91.9788" y2="279.37" gradientUnits="userSpaceOnUse">
<stop offset="0.062" stop-color="#EDDAD7"/>
<stop offset="0.3257" stop-color="#E8A2E6"/>
<stop offset="0.5893" stop-color="#87DDF6"/>
<stop offset="1" stop-color="#AE8BE6"/>
</linearGradient>
</defs>
</svg>
